<?xml version="1.0" encoding="UTF-8"?>
<svg width="85px" height="95px" viewBox="0 0 85 95" version="1.1" xmlns="http://www.w3.org/2000/svg" xmlns:xlink="http://www.w3.org/1999/xlink">
    <!-- Generator: Sketch 52.3 (67297) - http://www.bohemiancoding.com/sketch -->
    <title>Shape</title>
    <desc>Created with Sketch.</desc>
    <g id="Page-1" stroke="none" stroke-width="1" fill="none" fill-rule="evenodd">
        <path d="M80.8,21 L46.1,1 C43.9,-0.3 41.1,-0.3 38.9,1 L4.3,21 C2.1,22.3 0.7,24.7 0.7,27.2 L0.7,67.2 C0.7,69.8 2.1,72.2 4.3,73.4 L38.9,93.4 C40,94 41.2,94.4 42.5,94.4 C43.8,94.4 45,94.1 46.1,93.4 L80.7,73.4 C82.9,72.1 84.3,69.7 84.3,67.2 L84.3,27.2 C84.4,24.6 83,22.2 80.8,21 Z M30.1,55.6 L19,46.6 L30.2,38.5 L32.7,41.9 L26,46.8 L32.8,52.3 L30.1,55.6 Z M39.9,61.9 L35.9,60.5 L45.6,32.3 L49.6,33.7 L39.9,61.9 Z M55,55.6 L52.4,52.3 L59.2,46.8 L52.5,41.9 L55,38.5 L66.2,46.6 L55,55.6 Z" id="Shape" fill="#000000" fill-rule="nonzero"></path>
    </g>
</svg>